<?xml version="1.0" encoding="UTF-8"?>
<!DOCTYPE svg PUBLIC "-//W3C//DTD SVG 1.1//EN" "http://www.w3.org/Graphics/SVG/1.1/DTD/svg11.dtd">
<!-- Creator: CorelDRAW -->
<svg xmlns="http://www.w3.org/2000/svg" xml:space="preserve" width="122.669mm" height="39.7243mm" version="1.1" style="shape-rendering:geometricPrecision; text-rendering:geometricPrecision; image-rendering:optimizeQuality; fill-rule:evenodd; clip-rule:evenodd"
viewBox="0 0 11338.95 3671.91"
 xmlns:xlink="http://www.w3.org/1999/xlink"
 xmlns:xodm="http://www.corel.com/coreldraw/odm/2003">
 <defs>
  <style type="text/css">
   <![CDATA[
    .fil1 {fill:#FEFEFE}
    .fil0 {fill:#FEFEFE;fill-rule:nonzero}
    .fil2 {fill:#009846;fill-rule:nonzero}
   ]]>
  </style>
 </defs>
 <g id="Layer_x0020_1">
  <metadata id="CorelCorpID_0Corel-Layer"/>
  <path class="fil0" d="M3367.79 0l2272.7 0 0 306.59 -1102.71 0 0 2100.94 -345.94 0 0 -2100.94 -824.05 0 0 -306.59zm1684.63 824.65l0 362.96 17.63 -27.6c154.51,-242.11 302.48,-335.36 454.02,-335.36 118.05,0 241.39,28.78 370.02,148l-165.04 274.87c-109.25,-102.77 -210.26,-154.46 -303.07,-154.46 -101.02,0 -188.53,48.16 -262.54,144.49 -74,96.33 -111.01,210.27 -111.01,342.43l0 827.55 -314.81 0 0 -1582.87 314.81 0zm1603.58 1582.87l0 -201.46c-66.96,72.26 -142.73,128.62 -227.89,168.57 -85.75,40.51 -170.91,60.49 -256.08,60.49 -99.26,0 -191.47,-25.24 -276.05,-75.18 -83.99,-49.92 -148.01,-117.48 -190.89,-202.64 -42.87,-85.74 -64.6,-227.29 -64.6,-425.82l0 -906.84 313.05 0 0 903.33c0,166.21 24.08,282.51 71.66,348.29 47.58,65.77 130.98,98.67 250.21,98.67 149.17,0 276.04,-72.84 380.59,-218.49l0 -1131.8 313.05 0 0 1582.87 -313.05 0zm319.64 -1582.87l0 200.87c139.79,-154.49 298.96,-200.87 476.92,-200.87 98.67,0 190.23,-5.75 274.88,45.22 85.09,51.23 149.77,121 193.83,210.26 44.05,88.69 66.37,229.65 66.37,422.3l0 905.1 -313.06 0 0 -901.57c0,-162.09 -24.66,-277.21 -73.99,-346.52 -49.35,-69.9 -132.16,-104.55 -247.86,-104.55 -148.02,0 -273.7,74 -377.08,222.02l0 1130.63 -320.09 0 0 -1582.87 320.09 0zm1793.29 1610.48l-8.22 29.38c61.66,14.68 110.41,43.46 145.07,85.75 35.25,42.29 52.27,90.45 52.27,144.49 0,87.51 -34.65,161.53 -104.54,223.18 -69.89,61.09 -182.08,91.63 -335.95,91.63 -42.3,0 -79.29,-2.35 -111.6,-8.23l0 -194.41c58.72,4.11 95.14,6.46 110.41,6.46 65.19,0 116.3,-12.34 152.72,-37.59 21.72,-14.68 32.89,-34.64 32.89,-58.74 0,-27.59 -11.75,-50.51 -35.25,-68.71 -23.5,-18.22 -66.95,-27.6 -129.8,-27.6 -12.93,0 -25.85,1.76 -39.94,5.28l75.76 -211.44c-149.18,-33.47 -285.45,-111.61 -409.38,-234.93 -123.93,-123.35 -185.6,-308.36 -185.6,-555.04 0,-249.03 71.81,-449.78 214.97,-602.02 143.46,-152.56 331.85,-197.93 566.2,-197.93 210.8,0 252.45,-13.24 459.3,78.7l0 334.2c-158.58,-101.03 -305.42,-151.54 -440.5,-151.54 -140.97,0 -257.26,49.33 -347.72,148.59 -90.45,99.28 -135.67,226.13 -135.67,379.44 0,162.1 48.75,290.73 146.83,385.87 98.08,95.16 230.24,142.72 396.45,142.72 120.41,0 259.02,-35.24 414.67,-105.11l0 309.51c-156.83,58.72 -310.71,88.1 -461.07,88.1l-22.31 0z"/>
  <path class="fil0" d="M9238.95 1371.45c0,-168.55 61.67,-301.88 185.01,-399.98 123.35,-98.07 291.91,-146.81 505.12,-146.81l651.94 0 0 244.33 -320.1 0c62.26,62.84 105.14,120.41 129.22,172.08 24.08,51.69 36.41,110.42 36.41,176.8 0,82.81 -23.5,163.87 -70.48,243.74 -46.98,79.88 -108.07,140.96 -181.49,183.26 -74,42.28 -195.58,76.34 -364.15,101.6 -118.06,17.03 -177.38,57.57 -177.38,122.16 0,36.41 22.32,66.95 66.37,90.45 44.05,23.48 123.94,47.58 240.22,72.84 193.83,42.28 318.36,75.76 374.15,99.83 55.79,24.1 105.72,58.74 150.35,103.38 75.75,75.77 113.94,170.91 113.94,285.44 0,150.36 -66.96,270.2 -200.86,360.05 -133.33,89.28 -312.48,133.91 -535.66,133.91 -226.12,0 -406.44,-45.22 -541.53,-135.08 -134.49,-89.87 -202.04,-210.86 -202.04,-362.41 0,-214.38 132.75,-352.39 397.64,-414.65 -105.73,-67.54 -158.58,-134.49 -158.58,-200.87 0,-50.5 22.91,-96.91 68.12,-138.02 45.23,-41.11 106.31,-71.65 183.26,-91.03 -233.19,-103.38 -349.48,-270.18 -349.48,-501.02zm588.51 -274.87c-84.57,0 -156.83,28.2 -216.72,85.75 -59.92,57.57 -89.28,126.29 -89.28,206.76 0,81.05 29.37,148.59 87.52,202.04 58.73,53.45 132.74,79.89 222.01,79.89 88.11,0 4.94,-26.9 64.11,-81.66 58.87,-54.48 88.11,-122.74 88.11,-203.79 0,-82.83 -29.38,-151.55 -89.27,-206.76 -59.92,-55.2 23.4,-82.23 -66.47,-82.23zm-74 1384.96c-105.14,0 -191.48,22.3 -259.02,66.95 -66.95,44.64 -100.42,102.2 -100.42,172.08 0,163.3 146.82,244.34 440.5,244.34 138.61,0 246.1,-19.97 322.44,-61.07 76.36,-40.53 114.54,-98.1 114.54,-172.68 0,-73.42 -48.15,-133.34 -144.48,-179.74 -96.33,-46.39 -220.85,-69.88 -373.56,-69.88zm943.4 -2322.96c51.69,0 95.73,17.64 132.75,53.46 36.41,35.25 55.2,78.7 55.2,130.4 0,50.5 -18.79,94.55 -55.2,130.96 -37.01,37.01 -81.06,55.22 -132.75,55.22 -48.17,0 -90.45,-18.79 -126.87,-55.79 -37,-37.6 -55.2,-81.06 -55.2,-130.39 0,-48.17 18.2,-90.45 55.2,-128.05 36.42,-37 78.7,-55.8 126.87,-55.8zm-154.47 666.07l313.05 0 0 1582.87 -313.05 0 0 -1582.87zm483.52 -821.11l313.04 0 0 2403.98 -313.04 0 0 -2403.98z"/>
  <path class="fil1" d="M1898.91 2473.97c-249.7,-527.88 -496.1,-1048.77 -745.8,-1576.66 -554,-787.86 -1527.79,104.55 -1002.42,772.43 486.27,383.32 887.69,716.83 1373.96,1100.15 247.48,-45.58 348.02,-165.31 374.26,-295.92z"/>
  <path class="fil1" d="M2311.17 2344.94c-46.99,-437.83 -192.57,-1303.56 -210.51,-1629.3 -75.63,-1104.95 -1311.63,-754.48 -847.69,213.06 240.39,482.93 423.11,1014.55 692.72,1530.64 150.11,39.73 335.44,-28.26 365.49,-114.4z"/>
  <path class="fil1" d="M2656.89 2391.73c101.54,-428.02 266.49,-1034.5 356.62,-1347.94 80.11,-739.66 -732.94,-1062.39 -822.5,-607.11 -16.22,170.51 5.62,428.62 39.62,727.08 41.04,360.23 99.12,770.94 129.96,1165.71 82.98,112 232.81,122.65 296.3,62.26z"/>
  <path class="fil1" d="M2938.23 2631.96l502.38 -723.46c223.27,-385.93 -124.73,-1297.36 -321.39,-770.63 -15.58,28.47 -345.87,1054.17 -415.68,1259.67 4.05,207.2 173.52,270.22 234.68,234.42z"/>
  <path class="fil1" d="M1936.61 2493.67c163.91,22.25 338.69,-5.45 399.87,-136.29 98.06,130.55 269.66,130.49 337.3,54.28 -3.36,160.92 74.89,253.08 225.59,276.24 -70.07,107.57 -194.89,235.68 -259.01,30.38 -68.11,346.01 -136.21,577.5 -204.32,923.52 -74.21,36.9 -128.82,43.24 -203.87,0 -39.52,-322.15 -79.03,-529.76 -118.55,-851.92 -127.39,236.35 -319.58,220.99 -550.69,10.67 62.65,-29.05 307.87,-39.15 373.67,-306.88z"/>
  <path class="fil2" d="M4545.55 2513.86c-13.5,-5.15 -28.23,-9.82 -44.18,-13.99 -16.2,-3.93 -31.92,-6.14 -47.14,-6.14 -34.13,0 -60.15,9.33 -78.31,27.98 -18.41,18.9 -31.92,48.12 -41,87.9l-17.43 81.26 167.69 0 -35.36 167.68 -171.12 0 -174.8 813.35 -227.33 0 174.06 -813.35 -124.96 0 36.59 -167.68 123.73 0 23.81 -105.81c20.13,-89.61 57.45,-156.14 112.44,-199.84 55,-43.69 129.38,-65.55 223.42,-65.55 24.3,0 48.85,1.96 73.64,5.89 24.8,3.69 45.17,8.35 61.38,13.5l-35.11 174.79zm335.85 -60.39c0,18.65 -3.68,35.6 -10.81,50.33 -7.12,14.97 -16.93,27.74 -29.21,38.54 -12.04,10.81 -26.52,19.15 -42.96,24.8 -16.69,5.89 -34.38,8.6 -53.77,8.6 -18.16,0 -35.11,-2.71 -50.57,-8.11 -15.71,-5.65 -28.97,-13.26 -40.26,-23.08 -11.3,-9.82 -20.13,-21.6 -26.76,-34.86 -6.38,-13.5 -9.58,-28.23 -9.58,-43.94 0,-18.66 3.44,-35.6 10.32,-50.33 7.12,-14.97 16.69,-27.74 28.97,-38.55 12.03,-10.8 26.51,-18.9 43.45,-24.79 16.69,-5.65 34.86,-8.6 54.5,-8.6 18.41,0 35.11,2.7 50.57,8.35 15.22,5.4 28.48,13.01 39.77,22.83 11.3,9.83 20.13,21.6 26.76,34.87 6.39,13.5 9.58,28.23 9.58,43.94zm-74.88 967.53c-8.59,2.21 -18.41,4.67 -29.7,7.13 -11.3,2.45 -23.33,4.66 -36.1,6.87 -12.52,2.21 -25.78,3.69 -39.53,4.92 -13.5,1.22 -27.25,1.96 -40.5,1.96 -32.17,0 -59.66,-4.42 -82.49,-12.77 -22.83,-8.35 -41.49,-20.13 -56.47,-35.11 -14.73,-15.22 -25.78,-33.15 -32.65,-54.01 -6.88,-20.87 -10.56,-43.7 -10.56,-68.74 0,-10.56 0.73,-22.34 1.96,-35.11 1.23,-13.01 2.7,-26.51 4.67,-40.75 1.96,-13.99 4.17,-28.48 6.87,-43.2 2.46,-14.48 5.41,-28.48 8.11,-41.98 1.96,-8.11 5.16,-23.08 9.82,-44.93 4.42,-21.84 9.83,-46.88 15.71,-75.12 6.14,-28.48 12.52,-58.18 19.15,-89.61 6.63,-31.43 13.01,-61.38 19.14,-89.61 5.9,-28.24 11.3,-53.28 15.71,-75.13 4.67,-21.84 7.86,-36.83 9.83,-44.92l230.03 0 -87.65 414.16c-3.93,16.94 -8.1,35.85 -12.28,56.47 -4.42,20.86 -6.38,39.04 -6.38,54.5 0,18.17 5.64,30.94 17.18,38.06 11.54,7.12 24.55,10.8 39.53,10.8 12.52,0 25.04,-1.47 37.81,-3.92 12.77,-2.71 24.3,-6.14 34.87,-10.57 -6.39,28.73 -12.28,57.21 -17.92,85.2 -5.9,28.23 -11.79,56.46 -18.17,85.43zm808.94 -554.59c0,7.12 -0.73,16.69 -2.21,28.73 -1.47,12.03 -3.19,24.55 -5.4,37.32 -1.97,13.01 -4.42,25.53 -6.63,37.81 -2.46,12.28 -4.67,22.58 -6.63,31.43l-89.86 425.7 -228.07 0 88.63 -420.06c2.7,-15.21 5.65,-31.18 8.59,-47.38 2.71,-16.44 4.18,-28.97 4.18,-37.56 0,-22.83 -5.89,-41.24 -17.67,-55 -11.55,-13.5 -29.22,-20.37 -52.79,-20.37 -19.63,0 -40.02,6.14 -61.38,18.16 -21.35,12.28 -41.48,28.48 -60.15,48.61 -18.65,20.13 -35.11,43.21 -49.34,69.48 -13.99,26.02 -24.06,52.78 -29.71,80.28l-76.35 363.83 -231.51 0 109.25 -505c4.42,-22.1 8.6,-44.19 13.01,-66.53 4.42,-22.09 8.1,-43.45 11.54,-63.83 3.2,-20.38 6.39,-39.53 8.84,-56.96 2.71,-17.43 4.67,-32.17 6.14,-44.19l224.4 0c-1.23,13.5 -2.95,27.5 -4.67,41.98 -1.72,14.72 -3.19,28.72 -4.91,42.22 -1.72,13.26 -3.19,25.29 -4.66,35.6 -1.48,10.32 -2.71,17.67 -3.69,21.85l2.95 0c16.69,-22.09 35.6,-42.71 56.71,-62.12 21.11,-19.39 43.7,-36.34 67.26,-50.82 23.82,-14.23 48.37,-25.77 73.9,-34.12 25.29,-8.35 50.82,-12.52 76.1,-12.52 60.89,0 106.8,16.94 137.73,50.57 30.94,33.89 46.4,81.51 46.4,142.89zm703.37 317.93c-3.44,14.73 -6.63,32.9 -9.82,53.76 -3.2,21.12 -5.9,43.21 -8.6,66.04 -2.7,22.59 -4.91,44.92 -6.39,66.78 -1.71,21.85 -2.7,40.75 -2.7,56.47l-230.03 0c0,-7.12 0.24,-16.44 0.98,-27.74 0.74,-11.3 1.48,-22.83 2.46,-34.38 0.98,-11.78 2.21,-23.32 3.44,-34.62 1.22,-11.29 2.21,-20.86 3.19,-28.47l-2.95 0c-13.99,18.65 -28.23,36.83 -43.2,54.01 -14.73,17.18 -31.43,32.41 -49.59,45.66 -18.17,13.26 -38.55,23.81 -60.65,31.67 -22.34,7.86 -48.11,11.79 -77.33,11.79 -36.09,0 -68,-6.39 -95.99,-19.39 -28.23,-13.01 -51.8,-31.68 -70.94,-55.98 -19.15,-24.55 -33.89,-54.5 -43.95,-89.61 -10.07,-35.36 -14.97,-75.12 -14.97,-119.8 0,-22.59 2.46,-50.33 7.37,-82.99 5.16,-32.9 14.23,-67.51 27.5,-103.6 13.26,-36.34 31.42,-72.17 54.99,-108.02 23.57,-35.6 53.52,-68 90.35,-96.72 36.58,-28.73 81.02,-52.05 133.06,-69.72 51.8,-17.68 113.18,-26.52 183.64,-26.52 27.25,0 54.75,0.98 82.49,3.19 27.5,2.21 54.5,4.92 81.26,8.6 26.52,3.68 52.29,7.86 77.34,12.52 24.79,4.91 48.11,9.57 69.71,14.48l-100.65 472.59zm-154.67 -344.69c-11.05,-2.21 -23.32,-4.17 -36.83,-5.4 -13.26,-0.98 -26.02,-1.72 -38.05,-1.72 -33.15,0 -62.12,5.65 -86.91,16.69 -25.04,10.81 -46.65,25.29 -65.31,42.96 -18.41,17.92 -33.88,38.06 -46.4,60.4 -12.28,22.58 -22.34,45.41 -29.71,68.73 -7.37,23.32 -12.77,45.91 -15.95,68 -2.95,22.1 -4.67,41.49 -4.67,58.19 0,17.92 1.97,34.37 5.41,49.34 3.68,15.22 9.33,28.24 16.93,39.28 7.62,11.05 17.18,19.64 28.48,25.78 11.3,6.38 24.3,9.33 39.28,9.33 27.25,0 51.55,-7.86 72.91,-23.57 21.36,-15.95 40.02,-36.09 55.97,-60.88 16.2,-24.8 29.71,-52.54 40.51,-83.48 10.56,-30.93 19.39,-61.38 26.02,-91.58l38.3 -172.1zm1003.87 26.76c0,7.12 -0.73,16.69 -2.21,28.73 -1.47,12.03 -3.19,24.55 -5.4,37.32 -1.97,13.01 -4.42,25.53 -6.63,37.81 -2.46,12.28 -4.67,22.58 -6.63,31.43l-89.86 425.7 -228.07 0 88.63 -420.06c2.7,-15.21 5.65,-31.18 8.59,-47.38 2.71,-16.44 4.18,-28.97 4.18,-37.56 0,-22.83 -5.89,-41.24 -17.67,-55 -11.55,-13.5 -29.22,-20.37 -52.79,-20.37 -19.63,0 -40.02,6.14 -61.38,18.16 -21.35,12.28 -41.48,28.48 -60.15,48.61 -18.65,20.13 -35.11,43.21 -49.34,69.48 -13.99,26.02 -24.06,52.78 -29.71,80.28l-76.35 363.83 -231.51 0 109.25 -505c4.42,-22.1 8.6,-44.19 13.01,-66.53 4.42,-22.09 8.1,-43.45 11.54,-63.83 3.2,-20.38 6.39,-39.53 8.84,-56.96 2.71,-17.43 4.67,-32.17 6.14,-44.19l224.4 0c-1.23,13.5 -2.95,27.5 -4.67,41.98 -1.72,14.72 -3.19,28.72 -4.91,42.22 -1.72,13.26 -3.19,25.29 -4.66,35.6 -1.48,10.32 -2.71,17.67 -3.69,21.85l2.95 0c16.69,-22.09 35.6,-42.71 56.71,-62.12 21.11,-19.39 43.7,-36.34 67.26,-50.82 23.82,-14.23 48.37,-25.77 73.9,-34.12 25.29,-8.35 50.82,-12.52 76.1,-12.52 60.89,0 106.8,16.94 137.73,50.57 30.94,33.89 46.4,81.51 46.4,142.89zm600.51 26.52c-16.45,-12.52 -37.57,-23.08 -63.35,-32.41 -26.02,-9.09 -54.01,-13.5 -84.21,-13.5 -34.86,0 -66.53,8.1 -95,24.3 -28.24,16.45 -52.3,37.57 -71.93,63.35 -19.64,26.02 -34.62,54.99 -45.17,87.15 -10.56,32.17 -15.96,63.59 -15.96,94.76 0,49.6 11.55,87.65 34.62,114.41 23.08,27.01 57.45,40.26 103.6,40.26 14.24,0 29.22,-1.47 44.93,-4.17 15.46,-2.95 30.93,-6.88 46.4,-12.04 15.21,-4.91 30.19,-10.56 44.18,-16.94 14.24,-6.13 27.01,-12.77 38.55,-20.12l-35.35 174.06c-32.66,16.94 -67.27,29.96 -104.1,39.28 -37.07,9.33 -73.89,13.99 -110.97,13.99 -47.87,0 -89.86,-7.37 -126.18,-22.34 -36.1,-14.73 -66.53,-35.6 -90.84,-62.36 -24.55,-27.01 -42.96,-58.93 -55.24,-96.24 -12.04,-37.07 -18.17,-77.82 -18.17,-122.5 0,-41.24 4.67,-81.51 13.99,-120.54 9.33,-39.04 22.83,-75.86 40.5,-110.48 17.92,-34.37 39.77,-66.29 65.8,-95.49 26.27,-29.22 56.23,-54.5 90.11,-75.62 33.63,-21.11 71.19,-37.56 112.2,-49.1 40.99,-11.78 85.19,-17.67 132.57,-17.67 22.09,0 42.96,1.23 62.61,3.93 19.63,2.7 37.56,5.9 54.01,10.07 16.2,3.93 30.69,8.6 43.2,13.75 12.28,4.92 22.34,9.58 30.2,13.99l-40.99 178.24zm672.68 -12.28c0,38.05 -8.1,72.66 -24.06,104.33 -15.95,31.68 -42.96,58.93 -80.52,82 -37.57,23.08 -87.65,41.24 -150,54.26 -62.36,13.26 -139.94,20.62 -232.98,22.09 -0.99,2.71 -1.48,5.41 -1.48,7.62 0,1.96 0,4.42 0,6.63 0,14.97 2.46,29.71 7.13,44.68 4.91,14.97 13.01,28.23 24.79,40.26 11.79,12.03 27.25,21.6 46.4,29.21 19.15,7.37 43.2,11.05 71.93,11.05 17.43,0 36.09,-1.47 56.47,-4.66 20.37,-3.2 41.24,-7.62 62.36,-13.75 21.11,-5.89 41.97,-13.01 62.85,-21.6 20.87,-8.35 40.26,-17.43 57.94,-27.5l-35.35 169.65c-14.73,7.62 -31.92,15.22 -51.07,22.34 -19.15,7.12 -39.77,13.75 -62.11,19.39 -22.34,5.9 -46.16,10.32 -71.2,13.75 -25.28,3.19 -51.06,4.91 -77.33,4.91 -55.73,0 -103.36,-8.11 -143.13,-24.31 -39.77,-16.44 -72.67,-38.3 -98.2,-65.8 -25.78,-27.74 -44.44,-59.9 -56.47,-96.97 -12.03,-36.83 -17.92,-76.1 -17.92,-117.84 0,-62.86 10.32,-122.51 31.18,-178.97 20.87,-56.72 50.58,-106.31 89.12,-149.02 38.79,-42.71 85.2,-76.6 139.7,-101.64 54.26,-25.28 115.14,-37.81 182.16,-37.81 48.61,0 89.86,5.65 123.73,17.18 34.13,11.55 61.87,27.01 83.48,46.4 21.6,19.39 37.56,41.49 47.62,66.53 10.07,25.04 14.97,50.82 14.97,77.58zm-216.53 2.94c0,-17.67 -6.64,-32.41 -19.64,-44.18 -13.26,-11.79 -31.92,-17.68 -55.73,-17.68 -21.11,0 -41.49,4.67 -60.89,13.75 -19.39,9.08 -37.08,21.6 -53.27,37.81 -15.96,15.95 -29.71,35.11 -41.24,57.45 -11.55,22.34 -20.13,46.4 -26.03,72.17 86.42,0.99 150.74,-8.84 193.22,-29.46 42.46,-20.62 63.59,-50.57 63.59,-89.86z"/>
 </g>
</svg>