<?xml version="1.0" encoding="UTF-8"?>
<!DOCTYPE svg PUBLIC "-//W3C//DTD SVG 1.1//EN" "http://www.w3.org/Graphics/SVG/1.1/DTD/svg11.dtd">
<!-- Creator: CorelDRAW -->
<svg xmlns="http://www.w3.org/2000/svg" xml:space="preserve" width="122.669mm" height="39.7243mm" version="1.1" style="shape-rendering:geometricPrecision; text-rendering:geometricPrecision; image-rendering:optimizeQuality; fill-rule:evenodd; clip-rule:evenodd"
viewBox="0 0 11718.85 3794.94"
 xmlns:xlink="http://www.w3.org/1999/xlink"
 xmlns:xodm="http://www.corel.com/coreldraw/odm/2003">
 <defs>
  <style type="text/css">
   <![CDATA[
    .fil4 {fill:#2B2A29}
    .fil2 {fill:#E31E24}
    .fil3 {fill:#E84F28}
    .fil5 {fill:#009846;fill-rule:nonzero}
    .fil0 {fill:#2B2A29;fill-rule:nonzero}
    .fil1 {fill:#434242;fill-rule:nonzero}
   ]]>
  </style>
 </defs>
 <g id="Layer_x0020_1">
  <metadata id="CorelCorpID_0Corel-Layer"/>
  <path class="fil0" d="M3480.63 0l2348.84 0 0 316.86 -1139.66 0 0 2171.33 -357.53 0 0 -2171.33 -851.66 0 0 -316.86zm1741.07 852.28l0 375.13 18.22 -28.53c159.69,-250.22 312.62,-346.6 469.23,-346.6 122,0 249.48,29.74 382.41,152.96l-170.57 284.08c-112.91,-106.21 -217.31,-159.63 -313.22,-159.63 -104.41,0 -194.85,49.77 -271.34,149.33 -76.48,99.55 -114.73,217.32 -114.73,353.9l0 855.28 -325.35 0 0 -1635.91 325.35 0zm1657.31 1635.91l0 -208.21c-69.2,74.68 -147.51,132.93 -235.52,174.22 -88.62,41.87 -176.64,62.52 -264.66,62.52 -102.58,0 -197.88,-26.09 -285.3,-77.7 -86.8,-51.6 -152.97,-121.41 -197.28,-209.43 -44.31,-88.62 -66.77,-234.9 -66.77,-440.09l0 -937.23 323.54 0 0 933.6c0,171.78 24.89,291.97 74.06,359.96 49.17,67.97 135.37,101.97 258.6,101.97 154.17,0 285.29,-75.28 393.34,-225.81l0 -1169.72 323.54 0 0 1635.91 -323.54 0zm330.35 -1635.91l0 207.6c144.47,-159.66 308.98,-207.6 492.9,-207.6 101.98,0 196.6,-5.94 284.09,46.73 87.94,52.94 154.79,125.05 200.32,217.31 45.52,91.66 68.59,237.34 68.59,436.45l0 935.42 -323.55 0 0 -931.78c0,-167.52 -25.49,-286.5 -76.47,-358.13 -51,-72.24 -136.59,-108.06 -256.17,-108.06 -152.98,0 -282.87,76.48 -389.71,229.46l0 1168.51 -330.82 0 0 -1635.91 330.82 0zm1853.38 1664.43l-8.49 30.36c63.73,15.17 114.11,44.92 149.93,88.62 36.43,43.71 54.02,93.48 54.02,149.33 0,90.44 -35.81,166.94 -108.05,230.66 -72.23,63.14 -188.18,94.7 -347.21,94.7 -43.72,0 -81.95,-2.43 -115.34,-8.5l0 -200.92c60.69,4.25 98.33,6.68 114.11,6.68 67.38,0 120.2,-12.75 157.84,-38.85 22.45,-15.17 33.99,-35.81 33.99,-60.71 0,-28.52 -12.14,-52.2 -36.43,-71.01 -24.28,-18.83 -69.19,-28.53 -134.15,-28.53 -13.36,0 -26.72,1.82 -41.28,5.45l78.3 -218.52c-154.18,-34.59 -295.01,-115.35 -423.09,-242.8 -128.08,-127.48 -191.82,-318.69 -191.82,-573.64 0,-257.37 74.22,-464.85 222.17,-622.19 148.27,-157.68 342.97,-204.56 585.17,-204.56 217.86,0 260.91,-13.68 474.69,81.34l0 345.4c-163.89,-104.42 -315.66,-156.62 -455.26,-156.62 -145.7,0 -265.88,50.99 -359.37,153.57 -93.48,102.6 -140.21,233.71 -140.21,392.15 0,167.53 50.38,300.47 151.75,398.8 101.37,98.35 237.95,147.5 409.74,147.5 124.44,0 267.7,-36.42 428.57,-108.63l0 319.88c-162.08,60.69 -321.12,91.05 -476.52,91.05l-23.06 0z"/>
  <path class="fil1" d="M9548.49 1417.4c0,-174.19 63.74,-312 191.21,-413.39 127.48,-101.36 301.69,-151.73 522.04,-151.73l673.79 0 0 252.52 -330.83 0c64.35,64.94 108.67,124.44 133.55,177.84 24.89,53.42 37.63,114.12 37.63,182.72 0,85.59 -24.28,169.36 -72.84,251.91 -48.56,82.56 -111.69,145.69 -187.57,189.4 -76.48,43.7 -202.14,78.9 -376.35,105.01 -122.01,17.6 -183.33,59.5 -183.33,126.26 0,37.63 23.07,69.19 68.59,93.48 45.53,24.27 128.09,49.17 248.27,75.28 200.32,43.7 329.02,78.3 386.68,103.17 57.66,24.91 109.26,60.71 155.39,106.84 78.29,78.31 117.75,176.64 117.75,295 0,155.4 -69.2,279.25 -207.59,372.12 -137.8,92.27 -322.95,138.4 -553.61,138.4 -233.7,0 -420.05,-46.73 -559.67,-139.6 -139,-92.89 -208.81,-217.93 -208.81,-374.55 0,-221.56 137.19,-364.2 410.96,-428.55 -109.27,-69.81 -163.89,-139 -163.89,-207.6 0,-52.19 23.67,-100.16 70.41,-142.65 46.74,-42.48 109.87,-74.05 189.4,-94.08 -241,-106.84 -361.19,-279.23 -361.19,-517.8zm608.23 -284.08c-87.4,0 -162.08,29.15 -223.98,88.62 -61.92,59.5 -92.27,130.53 -92.27,213.69 0,83.76 30.35,153.57 90.45,208.8 60.7,55.24 137.18,82.57 229.45,82.57 91.06,0 5.1,-27.8 66.26,-84.39 60.84,-56.31 91.06,-126.86 91.06,-210.62 0,-85.61 -30.36,-156.62 -92.26,-213.69 -61.92,-57.05 24.18,-84.99 -68.7,-84.99zm-76.48 1431.36c-108.66,0 -197.89,23.05 -267.7,69.19 -69.19,46.13 -103.79,105.62 -103.79,177.84 0,168.78 151.74,252.53 455.26,252.53 143.25,0 254.34,-20.63 333.24,-63.12 78.92,-41.89 118.37,-101.39 118.37,-178.46 0,-75.88 -49.76,-137.8 -149.32,-185.76 -99.55,-47.95 -228.24,-72.22 -386.07,-72.22zm975.01 -2400.78c53.42,0 98.94,18.23 137.19,55.25 37.63,36.43 57.05,81.34 57.05,134.77 0,52.19 -19.42,97.72 -57.05,135.35 -38.25,38.25 -83.77,57.07 -137.19,57.07 -49.78,0 -93.48,-19.42 -131.12,-57.66 -38.24,-38.86 -57.05,-83.77 -57.05,-134.76 0,-49.78 18.81,-93.48 57.05,-132.34 37.64,-38.24 81.34,-57.67 131.12,-57.67zm-159.64 688.38l323.54 0 0 1635.91 -323.54 0 0 -1635.91zm499.72 -848.62l323.53 0 0 2484.53 -323.53 0 0 -2484.53z"/>
  <g id="_3100229502368">
   <path class="fil2" d="M1962.53 2556.85c-258.07,-545.56 -512.72,-1083.91 -770.79,-1629.49 -572.56,-814.26 -1578.98,108.06 -1036.01,798.31 502.56,396.16 917.43,740.85 1420,1137.01 255.77,-47.11 359.68,-170.85 386.8,-305.84z"/>
   <path class="fil2" d="M2388.6 2423.5c-48.57,-452.5 -199.02,-1347.24 -217.56,-1683.89 -78.16,-1141.97 -1355.58,-779.76 -876.09,220.2 248.44,499.11 437.29,1048.54 715.93,1581.92 155.14,41.06 346.68,-29.2 377.73,-118.23z"/>
   <path class="fil3" d="M2745.91 2471.86c104.94,-442.36 275.42,-1069.16 368.57,-1393.1 82.8,-764.44 -757.49,-1097.99 -850.06,-627.45 -16.77,176.22 5.81,442.98 40.94,751.44 42.42,372.3 102.44,796.77 134.32,1204.76 85.76,115.76 240.61,126.76 306.23,64.35z"/>
   <path class="fil3" d="M3036.67 2720.14l519.22 -747.7c230.75,-398.86 -128.91,-1340.83 -332.15,-796.45 -16.1,29.42 -357.46,1089.49 -429.61,1301.87 4.18,214.14 179.33,279.27 242.55,242.28z"/>
   <path class="fil4" d="M2001.5 2577.22c169.41,22.99 350.04,-5.64 413.27,-140.85 101.35,134.92 278.7,134.86 348.61,56.1 -3.48,166.31 77.4,261.56 233.15,285.5 -72.41,111.17 -201.42,243.58 -267.69,31.4 -70.39,357.6 -140.78,596.85 -211.16,954.46 -76.69,38.14 -133.13,44.69 -210.7,0 -40.84,-332.95 -81.68,-547.51 -122.52,-880.46 -131.66,244.27 -330.29,228.4 -569.14,11.02 64.75,-30.03 318.19,-40.46 386.19,-317.17z"/>
  </g>
  <path class="fil5" d="M4697.85 2598.09c-13.95,-5.32 -29.18,-10.15 -45.66,-14.45 -16.75,-4.06 -32.99,-6.34 -48.72,-6.34 -35.27,0 -62.16,9.64 -80.93,28.92 -19.03,19.54 -32.99,49.73 -42.38,90.84l-18.02 83.98 173.3 0 -36.54 173.29 -176.85 0 -180.66 840.6 -234.95 0 179.9 -840.6 -129.15 0 37.81 -173.29 127.88 0 24.61 -109.36c20.81,-92.61 59.37,-161.37 116.21,-206.54 56.84,-45.16 133.72,-67.74 230.9,-67.74 25.12,0 50.49,2.03 76.11,6.09 25.63,3.81 46.69,8.63 63.43,13.96l-36.28 180.65zm347.11 -62.41c0,19.28 -3.8,36.79 -11.17,52.02 -7.36,15.48 -17.5,28.67 -30.19,39.83 -12.44,11.17 -27.41,19.79 -44.4,25.63 -17.25,6.09 -35.53,8.88 -55.57,8.88 -18.77,0 -36.28,-2.8 -52.27,-8.38 -16.24,-5.84 -29.94,-13.7 -41.61,-23.85 -11.67,-10.15 -20.81,-22.33 -27.66,-36.03 -6.59,-13.96 -9.9,-29.18 -9.9,-45.42 0,-19.29 3.55,-36.79 10.66,-52.02 7.36,-15.48 17.25,-28.67 29.94,-39.84 12.43,-11.16 27.4,-19.54 44.91,-25.62 17.25,-5.84 36.03,-8.88 56.33,-8.88 19.03,0 36.28,2.79 52.27,8.63 15.73,5.58 29.43,13.45 41.11,23.6 11.67,10.16 20.81,22.33 27.66,36.03 6.6,13.95 9.9,29.18 9.9,45.42zm-77.39 999.94c-8.87,2.28 -19.03,4.82 -30.69,7.37 -11.67,2.53 -24.11,4.81 -37.31,7.1 -12.94,2.28 -26.64,3.81 -40.85,5.08 -13.96,1.26 -28.16,2.03 -41.86,2.03 -33.25,0 -61.66,-4.57 -85.25,-13.19 -23.6,-8.63 -42.88,-20.81 -58.36,-36.28 -15.23,-15.73 -26.64,-34.26 -33.74,-55.82 -7.11,-21.57 -10.91,-45.17 -10.91,-71.05 0,-10.91 0.75,-23.09 2.03,-36.28 1.27,-13.45 2.79,-27.4 4.82,-42.12 2.03,-14.46 4.31,-29.43 7.1,-44.65 2.54,-14.97 5.59,-29.43 8.38,-43.39 2.03,-8.38 5.33,-23.85 10.15,-46.44 4.57,-22.57 10.16,-48.45 16.24,-77.64 6.34,-29.43 12.94,-60.13 19.79,-92.61 6.85,-32.48 13.44,-63.43 19.78,-92.61 6.09,-29.19 11.67,-55.06 16.24,-77.65 4.82,-22.57 8.12,-38.06 10.16,-46.43l237.74 0 -90.58 428.04c-4.06,17.51 -8.37,37.05 -12.69,58.36 -4.57,21.56 -6.59,40.34 -6.59,56.33 0,18.78 5.83,31.97 17.76,39.33 11.92,7.36 25.37,11.16 40.85,11.16 12.94,0 25.88,-1.52 39.07,-4.05 13.19,-2.8 25.12,-6.34 36.03,-10.92 -6.6,29.69 -12.69,59.12 -18.52,88.05 -6.09,29.18 -12.18,58.35 -18.78,88.29zm836.04 -573.17c0,7.36 -0.75,17.25 -2.28,29.69 -1.52,12.43 -3.3,25.37 -5.58,38.57 -2.03,13.44 -4.57,26.39 -6.85,39.07 -2.54,12.69 -4.82,23.34 -6.85,32.48l-92.87 439.96 -235.72 0 91.6 -434.14c2.79,-15.72 5.84,-32.22 8.87,-48.97 2.8,-17 4.32,-29.94 4.32,-38.81 0,-23.6 -6.09,-42.63 -18.27,-56.84 -11.93,-13.95 -30.2,-21.06 -54.56,-21.06 -20.29,0 -41.36,6.34 -63.43,18.77 -22.07,12.69 -42.87,29.43 -62.16,50.24 -19.28,20.81 -36.28,44.66 -50.99,71.81 -14.46,26.89 -24.87,54.55 -30.7,82.97l-78.91 376.02 -239.27 0 112.91 -521.92c4.57,-22.84 8.88,-45.67 13.45,-68.76 4.57,-22.83 8.37,-44.91 11.92,-65.96 3.31,-21.06 6.6,-40.86 9.13,-58.87 2.8,-18.02 4.82,-33.25 6.34,-45.67l231.91 0c-1.27,13.96 -3.05,28.42 -4.82,43.39 -1.78,15.22 -3.3,29.68 -5.07,43.64 -1.78,13.7 -3.3,26.14 -4.81,36.79 -1.53,10.66 -2.8,18.27 -3.81,22.58l3.05 0c17.25,-22.83 36.79,-44.15 58.61,-64.2 21.82,-20.04 45.17,-37.55 69.52,-52.52 24.62,-14.71 49.99,-26.63 76.38,-35.26 26.14,-8.63 52.52,-12.94 78.65,-12.94 62.93,0 110.38,17.51 142.34,52.27 31.97,35.02 47.96,84.24 47.96,147.67zm726.94 328.58c-3.55,15.23 -6.85,34 -10.15,55.56 -3.31,21.83 -6.09,44.66 -8.88,68.26 -2.79,23.35 -5.07,46.43 -6.6,69.01 -1.77,22.58 -2.79,42.12 -2.79,58.36l-237.74 0c0,-7.36 0.25,-17 1.01,-28.67 0.76,-11.67 1.53,-23.6 2.54,-35.53 1.01,-12.17 2.28,-24.1 3.55,-35.78 1.26,-11.66 2.28,-21.56 3.3,-29.42l-3.05 0c-14.46,19.28 -29.18,38.06 -44.65,55.82 -15.23,17.76 -32.48,33.49 -51.25,47.19 -18.78,13.7 -39.84,24.61 -62.68,32.73 -23.09,8.12 -49.72,12.18 -79.92,12.18 -37.3,0 -70.28,-6.6 -99.21,-20.04 -29.18,-13.45 -53.54,-32.74 -73.32,-57.85 -19.79,-25.37 -35.02,-56.33 -45.43,-92.61 -10.4,-36.54 -15.48,-77.64 -15.48,-123.82 0,-23.35 2.54,-52.02 7.61,-85.77 5.33,-34 14.71,-69.77 28.42,-107.07 13.7,-37.55 32.47,-74.59 56.83,-111.64 24.36,-36.79 55.31,-70.28 93.37,-99.96 37.8,-29.69 83.73,-53.79 137.52,-72.06 53.54,-18.28 116.97,-27.41 189.79,-27.41 28.16,0 56.58,1.01 85.25,3.3 28.42,2.28 56.33,5.08 83.98,8.88 27.41,3.8 54.04,8.12 79.93,12.94 25.62,5.07 49.72,9.89 72.05,14.97l-104.02 488.43zm-159.85 -356.24c-11.42,-2.28 -24.1,-4.31 -38.06,-5.58 -13.7,-1.01 -26.89,-1.78 -39.32,-1.78 -34.26,0 -64.2,5.84 -89.82,17.25 -25.88,11.17 -48.21,26.14 -67.49,44.4 -19.03,18.52 -35.01,39.33 -47.96,62.42 -12.69,23.34 -23.09,46.93 -30.7,71.04 -7.61,24.1 -13.19,47.45 -16.49,70.28 -3.05,22.84 -4.82,42.88 -4.82,60.14 0,18.52 2.03,35.52 5.59,50.99 3.8,15.73 9.64,29.19 17.5,40.6 7.87,11.42 17.76,20.3 29.43,26.64 11.67,6.59 25.12,9.64 40.6,9.64 28.16,0 53.28,-8.12 75.36,-24.36 22.08,-16.49 41.36,-37.3 57.84,-62.92 16.75,-25.63 30.7,-54.3 41.87,-86.27 10.91,-31.96 20.04,-63.43 26.89,-94.64l39.58 -177.86zm1037.51 27.66c0,7.36 -0.75,17.25 -2.28,29.69 -1.52,12.43 -3.3,25.37 -5.58,38.57 -2.03,13.44 -4.57,26.39 -6.85,39.07 -2.54,12.69 -4.82,23.34 -6.85,32.48l-92.87 439.96 -235.72 0 91.6 -434.14c2.79,-15.72 5.84,-32.22 8.87,-48.97 2.8,-17 4.32,-29.94 4.32,-38.81 0,-23.6 -6.09,-42.63 -18.27,-56.84 -11.93,-13.95 -30.2,-21.06 -54.56,-21.06 -20.29,0 -41.36,6.34 -63.43,18.77 -22.07,12.69 -42.87,29.43 -62.16,50.24 -19.28,20.81 -36.28,44.66 -50.99,71.81 -14.46,26.89 -24.87,54.55 -30.7,82.97l-78.91 376.02 -239.27 0 112.91 -521.92c4.57,-22.84 8.88,-45.67 13.45,-68.76 4.57,-22.83 8.37,-44.91 11.92,-65.96 3.31,-21.06 6.6,-40.86 9.13,-58.87 2.8,-18.02 4.82,-33.25 6.34,-45.67l231.91 0c-1.27,13.96 -3.05,28.42 -4.82,43.39 -1.78,15.22 -3.3,29.68 -5.07,43.64 -1.78,13.7 -3.3,26.14 -4.81,36.79 -1.53,10.66 -2.8,18.27 -3.81,22.58l3.05 0c17.25,-22.83 36.79,-44.15 58.61,-64.2 21.82,-20.04 45.17,-37.55 69.52,-52.52 24.62,-14.71 49.99,-26.63 76.38,-35.26 26.14,-8.63 52.52,-12.94 78.65,-12.94 62.93,0 110.38,17.51 142.34,52.27 31.97,35.02 47.96,84.24 47.96,147.67zm620.63 27.41c-17,-12.94 -38.82,-23.85 -65.47,-33.49 -26.89,-9.39 -55.82,-13.96 -87.03,-13.96 -36.03,0 -68.76,8.37 -98.19,25.12 -29.19,17 -54.05,38.82 -74.34,65.47 -20.3,26.89 -35.78,56.83 -46.69,90.07 -10.91,33.25 -16.5,65.72 -16.5,97.94 0,51.26 11.93,90.58 35.78,118.24 23.85,27.91 59.37,41.61 107.07,41.61 14.72,0 30.2,-1.52 46.44,-4.31 15.98,-3.05 31.96,-7.11 47.96,-12.44 15.72,-5.07 31.2,-10.91 45.66,-17.51 14.72,-6.33 27.91,-13.19 39.84,-20.8l-36.53 179.89c-33.75,17.51 -69.53,30.96 -107.59,40.6 -38.31,9.64 -76.37,14.46 -114.69,14.46 -49.48,0 -92.87,-7.61 -130.41,-23.09 -37.31,-15.23 -68.76,-36.79 -93.88,-64.45 -25.37,-27.91 -44.4,-60.9 -57.09,-99.47 -12.44,-38.31 -18.78,-80.43 -18.78,-126.61 0,-42.63 4.82,-84.24 14.46,-124.58 9.64,-40.34 23.6,-78.4 41.86,-114.18 18.52,-35.52 41.11,-68.51 68,-98.69 27.15,-30.2 58.11,-56.33 93.12,-78.15 34.75,-21.82 73.58,-38.81 115.96,-50.75 42.37,-12.17 88.04,-18.27 137.01,-18.27 22.83,0 44.4,1.27 64.7,4.06 20.29,2.79 38.81,6.09 55.82,10.4 16.75,4.06 31.72,8.88 44.65,14.21 12.69,5.08 23.09,9.9 31.21,14.46l-42.37 184.21zm695.21 -12.69c0,39.32 -8.37,75.1 -24.87,107.83 -16.49,32.74 -44.4,60.9 -83.22,84.75 -38.82,23.85 -90.58,42.63 -155.03,56.08 -64.45,13.7 -144.63,21.31 -240.79,22.83 -1.02,2.8 -1.53,5.59 -1.53,7.87 0,2.03 0,4.57 0,6.85 0,15.48 2.54,30.7 7.37,46.18 5.07,15.48 13.44,29.18 25.62,41.61 12.18,12.43 28.16,22.33 47.96,30.19 19.79,7.61 44.65,11.42 74.34,11.42 18.02,0 37.3,-1.52 58.36,-4.81 21.06,-3.31 42.63,-7.87 64.45,-14.22 21.82,-6.09 43.38,-13.44 64.95,-22.33 21.57,-8.63 41.61,-18.02 59.88,-28.42l-36.53 175.33c-15.23,7.87 -32.99,15.73 -52.78,23.09 -19.79,7.36 -41.11,14.21 -64.19,20.04 -23.09,6.09 -47.71,10.66 -73.59,14.22 -26.13,3.3 -52.77,5.07 -79.92,5.07 -57.6,0 -106.82,-8.38 -147.92,-25.12 -41.11,-17 -75.11,-39.58 -101.49,-68 -26.64,-28.67 -45.93,-61.9 -58.36,-100.22 -12.43,-38.06 -18.52,-78.65 -18.52,-121.78 0,-64.96 10.66,-126.62 32.22,-184.97 21.57,-58.62 52.28,-109.87 92.1,-154.02 40.09,-44.15 88.05,-79.17 144.38,-105.05 56.08,-26.13 118.99,-39.07 188.26,-39.07 50.24,0 92.87,5.84 127.88,17.76 35.27,11.93 63.94,27.91 86.27,47.96 22.33,20.04 38.81,42.88 49.22,68.76 10.4,25.88 15.48,52.52 15.48,80.18zm-223.78 3.04c0,-18.27 -6.86,-33.49 -20.3,-45.66 -13.7,-12.18 -32.99,-18.28 -57.6,-18.28 -21.82,0 -42.88,4.82 -62.93,14.22 -20.04,9.38 -38.32,22.33 -55.06,39.07 -16.5,16.49 -30.7,36.28 -42.63,59.37 -11.93,23.09 -20.81,47.96 -26.9,74.59 89.31,1.02 155.79,-9.13 199.69,-30.45 43.89,-21.31 65.72,-52.27 65.72,-92.87z"/>
 </g>
</svg>
